<svg width="29" height="28" viewBox="0 0 29 28" fill="none" xmlns="http://www.w3.org/2000/svg">
<g clip-path="url(#clip0_11_71)">
<path d="M0 6.61719V2.51562C0 1.15866 1.1434 0.0546875 2.54883 0.0546875H26.4512C27.8566 0.0546875 29 1.15866 29 2.51562V6.61719H0ZM9.40234 3.33594H4.30469C3.83548 3.33594 3.45508 3.70322 3.45508 4.15625C3.45508 4.60928 3.83548 4.97656 4.30469 4.97656H9.40234C9.87156 4.97656 10.252 4.60928 10.252 4.15625C10.252 3.70322 9.87156 3.33594 9.40234 3.33594ZM17.8984 3.33594C17.4292 3.33594 17.0488 3.70322 17.0488 4.15625C17.0488 4.60928 17.4292 4.97656 17.8984 4.97656C18.3676 4.97656 18.748 4.60928 18.748 4.15625C18.748 3.70322 18.3676 3.33594 17.8984 3.33594ZM21.2969 3.33594C20.8277 3.33594 20.4473 3.70322 20.4473 4.15625C20.4473 4.60928 20.8277 4.97656 21.2969 4.97656C21.7661 4.97656 22.1465 4.60928 22.1465 4.15625C22.1465 3.70322 21.7661 3.33594 21.2969 3.33594ZM24.6953 3.33594C24.2261 3.33594 23.8457 3.70322 23.8457 4.15625C23.8457 4.60928 24.2261 4.97656 24.6953 4.97656C25.1645 4.97656 25.5449 4.60928 25.5449 4.15625C25.5449 3.70322 25.1645 3.33594 24.6953 3.33594ZM29 8.25781V25.4844C29 26.8413 27.8566 27.9453 26.4512 27.9453H2.54883C1.1434 27.9453 0 26.8413 0 25.4844V8.25781H29ZM19.0669 19.9219C18.7005 20.205 18.6411 20.7211 18.9342 21.0749C19.2273 21.4286 19.762 21.4861 20.1284 21.203L24.3764 17.9218C24.8012 17.5938 24.8015 16.9689 24.3764 16.6406L20.1284 13.3594C19.7621 13.0764 19.2274 13.1337 18.9342 13.4875C18.6411 13.8412 18.7005 14.3575 19.0669 14.6404L22.4856 17.2812L19.0669 19.9219ZM11.1703 11.8622L16.2679 23.3466C16.4527 23.7629 16.9521 23.956 17.3835 23.7774C17.8148 23.599 18.0146 23.1167 17.8297 22.7003L12.7321 11.2159C12.5472 10.7995 12.0477 10.6066 11.6165 10.7851C11.1852 10.9635 10.9854 11.4458 11.1703 11.8622ZM4.62358 17.9218L8.87162 21.2031C9.23741 21.4857 9.77221 21.4292 10.0658 21.075C10.3589 20.7212 10.2995 20.205 9.93307 19.922L6.51435 17.2812L9.93307 14.6406C10.2995 14.3575 10.3589 13.8414 10.0658 13.4876C9.77272 13.1338 9.23803 13.0764 8.87162 13.3595L4.62358 16.6407C4.19883 16.9687 4.19854 17.5936 4.62358 17.9218Z" fill="#8C909F"/>
</g>
<defs>
<clipPath id="clip0_11_71">
<rect width="29" height="28" fill="white" transform="matrix(-1 0 0 1 29 0)"/>
</clipPath>
</defs>
</svg>
