<svg width="34" height="27" viewBox="0 0 34 27" fill="none" xmlns="http://www.w3.org/2000/svg">
<path d="M10.2 3.375C4.56875 3.375 0 7.91016 0 13.5C0 19.0898 4.56875 23.625 10.2 23.625H23.8C29.4313 23.625 34 19.0898 34 13.5C34 7.91016 29.4313 3.375 23.8 3.375H10.2ZM26.35 8.85938C26.9136 8.85938 27.4541 9.08161 27.8526 9.4772C28.2511 9.87278 28.475 10.4093 28.475 10.9688C28.475 11.5282 28.2511 12.0647 27.8526 12.4603C27.4541 12.8559 26.9136 13.0781 26.35 13.0781C25.7864 13.0781 25.2459 12.8559 24.8474 12.4603C24.4489 12.0647 24.225 11.5282 24.225 10.9688C24.225 10.4093 24.4489 9.87278 24.8474 9.4772C25.2459 9.08161 25.7864 8.85938 26.35 8.85938ZM20.825 16.0312C20.825 15.4718 21.0489 14.9353 21.4474 14.5397C21.8459 14.1441 22.3864 13.9219 22.95 13.9219C23.5136 13.9219 24.0541 14.1441 24.4526 14.5397C24.8511 14.9353 25.075 15.4718 25.075 16.0312C25.075 16.5907 24.8511 17.1272 24.4526 17.5228C24.0541 17.9184 23.5136 18.1406 22.95 18.1406C22.3864 18.1406 21.8459 17.9184 21.4474 17.5228C21.0489 17.1272 20.825 16.5907 20.825 16.0312ZM8.925 10.5469C8.925 9.84551 9.49344 9.28125 10.2 9.28125C10.9066 9.28125 11.475 9.84551 11.475 10.5469V12.2344H13.175C13.8816 12.2344 14.45 12.7986 14.45 13.5C14.45 14.2014 13.8816 14.7656 13.175 14.7656H11.475V16.4531C11.475 17.1545 10.9066 17.7188 10.2 17.7188C9.49344 17.7188 8.925 17.1545 8.925 16.4531V14.7656H7.225C6.51844 14.7656 5.95 14.2014 5.95 13.5C5.95 12.7986 6.51844 12.2344 7.225 12.2344H8.925V10.5469Z" fill="#8C909F"/>
</svg>
