<svg width="27" height="36" viewBox="0 0 27 36" fill="none" xmlns="http://www.w3.org/2000/svg">
<path d="M19.125 27C19.8 24.757 21.1992 22.8445 22.5844 20.9391C22.95 20.4398 23.3156 19.9406 23.6672 19.4344C25.0594 17.4305 25.875 15.0047 25.875 12.382C25.875 5.54063 20.3344 0 13.5 0C6.66563 0 1.125 5.54063 1.125 12.375C1.125 14.9977 1.94063 17.4305 3.33281 19.4273C3.68438 19.9336 4.05 20.4328 4.41562 20.932C5.80781 22.8375 7.20703 24.757 7.875 26.993H19.125V27ZM13.5 36C16.6078 36 19.125 33.4828 19.125 30.375V29.25H7.875V30.375C7.875 33.4828 10.3922 36 13.5 36ZM7.875 12.375C7.875 12.9937 7.36875 13.5 6.75 13.5C6.13125 13.5 5.625 12.9937 5.625 12.375C5.625 8.02266 9.14766 4.5 13.5 4.5C14.1187 4.5 14.625 5.00625 14.625 5.625C14.625 6.24375 14.1187 6.75 13.5 6.75C10.3922 6.75 7.875 9.26719 7.875 12.375Z" fill="#8C909F"/>
</svg>
