<svg xmlns="http://www.w3.org/2000/svg" version="1.1" xmlns:xlink="http://www.w3.org/1999/xlink" xmlns:svgjs="http://svgjs.dev/svgjs" width="100%" height="100%" viewBox="0 0 1000 600"><rect width="1000" height="600" x="0" y="0" fill="#8bd8bd"/><g><circle r="166.66666666666666" cx="300.13419596354163" cy="322.35640503994046" fill="#243665" transform="matrix(0.9365574689471918,0,0,0.9365574689471918,0,-1.9053026082314943)"/><path d="M270.1894014812913 373.2459593123606L270.1894014812913 373.2459593123606Q270.1894014812913 369.01283087427726 273.09737666919204 369.01283087427726L273.09737666919204 369.01283087427726Q274.16486123183915 369.01283087427726 275.23234579448626 370.3379841244599L275.23234579448626 370.3379841244599Q279.72314292010515 375.3441186251497 284.10351060820875 377.8839956879998Q288.4838782963124 380.3870629383447 293.52682260950735 380.3870629383447L293.52682260950735 380.3870629383447Q301.73541079813856 380.3870629383447 305.85810979870666 375.63859712519036Q309.94399898676977 370.8533214995308 309.94399898676977 363.7122178735468L309.94399898676977 363.7122178735468L309.94399898676977 249.74903835784198Q309.94399898676977 247.35640054501226 312.078968112064 247.35640054501226L312.078968112064 247.35640054501226L313.9194587373176 247.35640054501226Q321.61270955087775 247.35640054501226 325.8458379889611 251.9944369206514Q330.07896642704446 256.6324732962905 330.07896642704446 266.1662147351044L330.07896642704446 266.1662147351044L330.07896642704446 364.4852239361534Q330.07896642704446 379.06190968816213 321.87037823841325 388.2275530019251Q313.6617900497821 397.3563865031832 298.01761973512623 397.3563865031832L298.01761973512623 397.3563865031832Q285.8335717959472 397.3563865031832 278.0298915448718 390.2152828771991Q270.1894014812913 383.0373694387099 270.1894014812913 373.2459593123606Z " fill="#8bd8bd" transform="matrix(0.9365574689471918,0,0,0.9365574689471918,0,-1.9053026082314943)"/><path d="M603.0541491601462 397.1040410118045L603.0541491601462 397.1040410118045Q577.3872448962024 397.1040410118045 563.760714261693 378.14225499658767Q550.1341836271836 359.2165180042135 550.1341836271836 322.3383676362158L550.1341836271836 322.3383676362158Q550.1341836271836 285.74860945095907 564.0130574215914 266.534480275844Q577.8919312159991 247.35640012357143 603.0541491601462 247.35640012357143L603.0541491601462 247.35640012357143Q628.0000729672374 247.35640012357143 641.8789467616451 266.534480275844Q655.7578205560528 285.74860945095907 655.7578205560528 322.3383676362158L655.7578205560528 322.3383676362158Q655.7578205560528 359.2165180042135 642.1312899215435 378.14225499658767Q628.5047592870341 397.1040410118045 603.0541491601462 397.1040410118045ZM603.0541491601462 378.682990339227L603.0541491601462 378.682990339227Q613.1839245789216 378.682990339227 620.4658271931303 373.49193104989Q627.7116807844965 368.30087176055315 631.7491713428697 355.97210594837793Q635.7866619012427 343.6433401362027 635.7866619012427 322.3383676362158L635.7866619012427 322.3383676362158Q635.7866619012427 301.0694441590715 631.7491713428697 288.7406783468963Q627.7116807844965 276.4119125347212 620.4658271931303 271.0766571540138Q613.1839245789216 265.77745079614897 603.0541491601462 265.77745079614897L603.0541491601462 265.77745079614897Q592.9604227642133 265.77745079614897 585.534324058634 271.0766571540138Q578.1442743758975 276.4119125347212 574.1428328403669 288.7406783468963Q570.1053422819937 301.0694441590715 570.1053422819937 322.3383676362158L570.1053422819937 322.3383676362158Q570.1053422819937 343.6433401362027 574.1428328403669 355.97210594837793Q578.1442743758975 368.30087176055315 585.534324058634 373.49193104989Q592.9604227642133 378.682990339227 603.0541491601462 378.682990339227ZM700.3865108352134 312.74932756007956L700.3865108352134 312.74932756007956Q705.0728838047536 304.7103954661759 711.5617079164248 301.8625226616091Q718.0505320280959 298.9786008341997 728.4326506067698 298.9786008341997L728.4326506067698 298.9786008341997L731.2805234113365 298.9786008341997Q733.3713667362083 298.9786008341997 733.3713667362083 301.0694441590715L733.3713667362083 301.0694441590715L733.3713667362083 315.344857204748Q733.3713667362083 317.68804368951817 731.2805234113365 317.68804368951817L731.2805234113365 317.68804368951817L725.0440424595637 317.68804368951817Q711.3093647565264 317.68804368951817 706.1183054671894 324.681554120986Q700.9272461778526 331.7111135752964 700.9272461778526 346.7435561006679L700.9272461778526 346.7435561006679L700.9272461778526 392.1653248823659Q700.9272461778526 394.50851136713607 699.0887460128791 394.50851136713607L699.0887460128791 394.50851136713607L683.8039603276093 394.50851136713607Q681.7131170027375 394.50851136713607 681.7131170027375 392.1653248823659L681.7131170027375 392.1653248823659L681.7131170027375 301.0694441590715Q681.7131170027375 298.9786008341997 683.8039603276093 298.9786008341997L683.8039603276093 298.9786008341997L685.1017251499435 298.9786008341997Q691.5905492616147 298.9786008341997 695.5919907971452 302.51140507277626Q699.6294813555184 306.0081602885101 700.3865108352134 312.74932756007956ZM824.4672474595027 392.1653248823659L824.4672474595027 381.02617682399716Q818.7715018503692 389.06510891790083 810.6965207336228 392.9584033849035Q802.6575886397192 396.85169785190624 792.8162054036845 396.85169785190624L792.8162054036845 396.85169785190624Q778.540792358008 396.85169785190624 768.5191640077604 390.1105305803367Q758.5335846803554 383.33331428592464 753.3425253910184 371.94182306765754Q748.1514661016815 360.51428282654774 748.1514661016815 346.7435561006679L748.1514661016815 346.7435561006679Q748.1514661016815 332.215799895093 753.8832607336576 320.93245574535376Q759.5790063427912 309.6491115956145 769.8169288300946 303.1602874839433Q780.0909003402405 296.6714633722722 793.5732348833795 296.6714633722722L793.5732348833795 296.6714633722722Q804.4960888046926 296.6714633722722 812.6431679671242 300.81710099917325Q820.8262961523983 304.96273862607416 825.5126691219386 311.7039058976437L825.5126691219386 311.7039058976437Q826.8104339442729 304.96273862607416 830.7037284112755 301.97066973013693Q834.5970228782783 298.9786008341997 840.5451116473101 298.9786008341997L840.5451116473101 298.9786008341997L841.8428764696444 298.9786008341997Q843.6813766346179 298.9786008341997 843.6813766346179 301.3217873189699L843.6813766346179 301.3217873189699L843.6813766346179 392.1653248823659Q843.6813766346179 394.50851136713607 841.8428764696444 394.50851136713607L841.8428764696444 394.50851136713607L826.5580907843746 394.50851136713607Q824.4672474595027 394.50851136713607 824.4672474595027 392.1653248823659L824.4672474595027 392.1653248823659ZM795.6640782082513 378.682990339227L795.6640782082513 378.682990339227Q802.1529023199225 378.682990339227 808.7498735001216 375.943264603188Q815.3828937031631 373.23958788999175 819.9250705813329 366.21002843568135Q824.4672474595027 359.2165180042135 824.4672474595027 346.7435561006679L824.4672474595027 346.7435561006679Q824.4672474595027 334.0182510372239 819.9250705813329 327.1689366971266Q815.3828937031631 320.2835733341866 808.894069591492 317.68804368951817Q802.4052454798208 315.09251404484974 796.4211076879463 315.09251404484974L796.4211076879463 315.09251404484974Q785.2819596295775 315.09251404484974 776.7022921930345 322.87910297885514Q768.1586737793342 330.66569191286044 768.1586737793342 346.7435561006679L768.1586737793342 346.7435561006679Q768.1586737793342 358.42343950167594 772.4124584747631 365.45299895598635Q776.7022921930345 372.44650938745417 783.0829692361779 375.54672535191924Q789.4275972564785 378.682990339227 795.6640782082513 378.682990339227ZM924.8998250990351 319.7428379915474L924.8998250990351 319.7428379915474Q918.6993931701049 316.39027886718395 912.9675985381286 314.84017088495136Q907.2718529289951 313.2540138798762 900.5306856574257 313.2540138798762L900.5306856574257 313.2540138798762Q893.7534693630136 313.2540138798762 889.4996846675847 315.84954352454463Q885.2098509493132 318.4450731692132 885.2098509493132 323.63613245855004L885.2098509493132 323.63613245855004Q885.2098509493132 328.57484858798864 890.1485670787517 331.7111135752964Q895.0512341853478 334.81132953976146 902.3331367995565 337.4068591844299Q909.6150394137653 340.00238882909844 917.0050890965018 343.39099697630445Q924.3951387792383 346.7435561006679 929.333854908677 352.0788114813753Q934.2725710381155 357.37801783924 934.2725710381155 366.4623715955796L934.2725710381155 366.4623715955796Q934.2725710381155 380.2330983214596 924.5393348706089 388.81276575800246Q914.8060987031022 397.35638417170287 897.9351560127571 397.35638417170287L897.9351560127571 397.35638417170287Q887.2646452513425 397.35638417170287 879.478056317337 393.60728579607064Q871.6914673833317 389.8221383975957 867.5458297564307 384.1263927884622Q863.4001921295296 378.4306471793286 863.4001921295296 372.69885254735243L863.4001921295296 372.69885254735243Q863.4001921295296 368.30087176055315 866.2480649340964 368.30087176055315L866.2480649340964 368.30087176055315Q867.2934865965324 368.30087176055315 868.5912514188665 369.59863658288737L868.5912514188665 369.59863658288737Q873.5299675483052 373.99661736968665 880.0187916599763 377.3852255168928Q886.5076157716474 380.7377846412562 896.0966558477837 380.7377846412562L896.0966558477837 380.7377846412562Q905.4333527640216 380.7377846412562 910.1197257335618 377.3852255168928Q914.8060987031022 373.99661736968665 914.8060987031022 368.30087176055315L914.8060987031022 368.30087176055315Q914.8060987031022 363.1098124712162 909.8673825736636 359.97354748390853Q904.928666444225 356.87333151944335 897.5386167614884 354.42199796614534Q890.1485670787517 351.93461539000475 882.7224683731727 348.5820562656413Q875.332418690436 345.1934481184353 870.3937025609973 339.75004566920006Q865.4910354544014 334.3066432199648 865.4910354544014 325.2222894636252L865.4910354544014 325.2222894636252Q865.4910354544014 311.45156273774535 875.8731540330753 304.06151305500873Q886.2552726117491 296.6714633722722 900.783028817324 296.6714633722722L900.783028817324 296.6714633722722Q913.508333880768 296.6714633722722 922.8450307970058 301.3217873189699L922.8450307970058 301.3217873189699Q928.0360900863428 303.4126306438417 929.5861980685753 306.65704269967716Q931.1363060508079 309.90145475551276 929.8385412284737 315.344857204748L929.8385412284737 315.344857204748L929.0815117487787 318.7334653519541Q928.7931195660377 320.535916494085 927.2430115838051 320.535916494085L927.2430115838051 320.535916494085Q926.7383252640086 320.535916494085 926.0894428528414 320.2835733341866Q925.4405604416743 320.03123017428834 924.8998250990351 319.7428379915474Z " fill="#243665" transform="matrix(0.9365574689471918,0,0,0.9365574689471918,0,-1.9053026082314943)"/></g></svg>